<?xml version="1.0" encoding="utf-8"?>
<!-- Generator: Adobe Illustrator 27.5.0, SVG Export Plug-In . SVG Version: 6.00 Build 0)  -->
<svg version="1.1" xmlns="http://www.w3.org/2000/svg" xmlns:xlink="http://www.w3.org/1999/xlink" x="0px" y="0px"
	 viewBox="0 0 1040 500" style="enable-background:new 0 0 1040 500;" xml:space="preserve">
<g id="BACKGROUND">
	<rect style="fill:#E2E2BC;" width="1040" height="500"/>
</g>
<g id="OBJECTS">
	
		<ellipse transform="matrix(0.7071 -0.7071 0.7071 0.7071 74.5922 376.1317)" style="fill:#52722E;" cx="491.327" cy="98.025" rx="48.796" ry="48.796"/>
	<path style="fill:#CCC98B;" d="M245.384,0c0,0,0.225,51.362-87.939,31.384C69.281,11.405-2.37,34.164,60.391,163.173
		C84.879,231.171,0,262.612,0,262.612V0H245.384z"/>
	<path style="fill:none;stroke:#CCC98B;stroke-width:2;stroke-miterlimit:10;" d="M258.717,0c0,0,0.237,53.413-92.717,32.637
		C73.046,11.86-2.499,35.528,63.673,169.688C89.492,240.401,0,273.097,0,273.097"/>
	<path style="fill:#CCC98B;" d="M716.36,0c0,0-3.282,36.029,130.485,24.892s175.278-10.125,156.041,76.947
		c-19.237,87.072,12.466,106.183,37.113,114.852C1040,0,1040,0,1040,0H716.36z"/>
	<path style="fill:none;stroke:#CCC98B;stroke-width:2;stroke-miterlimit:10;" d="M700.169,0c0,0-3.446,38.771,137.014,26.786
		c140.459-11.985,184.047-10.895,163.848,82.803s13.09,114.264,38.97,123.592"/>
	<path style="fill:#CCC98B;" d="M1040,372.921c0,0-77.617-13.802-82.837,51.698c-5.219,65.5-126.576,68.01-236.838,40.402
		C610.064,437.412,557.93,500,557.93,500H1040V372.921z"/>
	<path style="fill:none;stroke:#CCC98B;stroke-width:2;stroke-miterlimit:10;" d="M1040,359.035c0,0-80.484-15.31-85.897,57.347
		c-5.412,72.657-131.252,75.441-245.587,44.816S540.123,500,540.123,500"/>
	<g>
		<defs>
			<rect id="SVGID_1_" x="13.207" y="421.596" width="92.147" height="78.404"/>
		</defs>
		<clipPath id="SVGID_00000119091975641596117050000011700579876221932431_">
			<use xlink:href="#SVGID_1_"  style="overflow:visible;"/>
		</clipPath>
		<g style="clip-path:url(#SVGID_00000119091975641596117050000011700579876221932431_);">
			
				<ellipse transform="matrix(0.1602 -0.9871 0.9871 0.1602 -427.497 461.6889)" style="fill:#D8691E;" cx="57.577" cy="482.076" rx="38.598" ry="38.597"/>
			<path style="opacity:0.47;fill:#FF9636;" d="M57.577,443.478c-7.192,0-13.92,1.973-19.684,5.398
				c-0.956,3.361-1.478,6.905-1.478,10.573c0,21.317,17.281,38.598,38.598,38.598c7.192,0,13.92-1.973,19.684-5.398
				c0.956-3.361,1.478-6.905,1.478-10.573C96.174,460.759,78.893,443.478,57.577,443.478z"/>
			<path style="fill:#B75615;" d="M62.774,509.36c-21.317,0-38.597-17.281-38.597-38.598c0-3.553,0.49-6.991,1.389-10.259
				c-4.158,6.159-6.586,13.582-6.586,21.572c0,21.317,17.281,38.598,38.598,38.598c17.763,0,32.714-12.004,37.208-28.339
				C87.85,502.606,76.101,509.36,62.774,509.36z"/>
			<path style="fill:#52722E;" d="M67.18,455.033c0,0,10.98-16.228,29.016-7.466C82.053,460.258,67.18,455.033,67.18,455.033z"/>
			<path style="fill:#52722E;" d="M67.18,455.033c0,0,1.654-19.523-17.883-24.039C52.327,449.753,67.18,455.033,67.18,455.033z"/>
		</g>
	</g>
	<g>
		<defs>
			<rect id="SVGID_00000153663589731824489670000012928753726706032038_" x="613.302" y="397" width="66.793" height="103"/>
		</defs>
		<clipPath id="SVGID_00000091730991648808246160000008337846687882926993_">
			<use xlink:href="#SVGID_00000153663589731824489670000012928753726706032038_"  style="overflow:visible;"/>
		</clipPath>
		<g style="clip-path:url(#SVGID_00000091730991648808246160000008337846687882926993_);">
			<path style="fill:#69841F;" d="M631.341,418.118c0,0-10.786,5.257-6.933,16.952c3.853,11.695,3.853,11.695,3.853,11.695
				l3.326-15.173L631.341,418.118z"/>
			<path style="fill:#69841F;" d="M660.836,534.95c0,0-3.567-1.653-8.264-15.082c-4.697-13.429-27.768-83.595-27.768-83.595
				l4.714-2.921L660.836,534.95z"/>
			<path style="fill:#69841F;" d="M665.373,518.987c3.604-3.068,9.53-2.228,12.599,1.376l2.123-2.653
				c-4.309-5.062-11.907-5.672-16.969-1.363c-5.062,4.31-5.672,11.907-1.363,16.969l1.342-0.297
				C660.036,529.415,660.04,523.527,665.373,518.987z"/>
			<path style="fill:#69841F;" d="M645.661,419.61c0,0-7.707-5.114-13.573-0.121c-5.866,4.994-5.972,11.061-2.12,17.29
				c30.466,88.034,30.466,88.034,30.466,88.034c0.063-0.073,2.444-7.834,9.234-8.268c6.872-0.44,9.11,1.31,9.11,1.31l-29.5-93.995
				L645.661,419.61z"/>
			<path style="fill:#506014;" d="M675.042,514.202l2.586-0.015l-28.349-90.328l-3.617-4.249c0,0-2.117-1.402-4.975-2.021
				l-5.646,3.043L675.042,514.202z"/>
			<path style="fill:#9EB547;" d="M632.472,422.193c3.988-3.395,9.974-2.914,13.369,1.074l2.921-2.487
				c-4.769-5.601-13.175-6.277-18.776-1.508c-5.601,4.768-6.277,13.175-1.508,18.776l2.921-2.487
				C628.003,431.573,628.484,425.588,632.472,422.193z"/>
			<polygon style="fill:#9EB547;" points="645.841,423.266 677.971,520.363 680.239,518.433 648.762,420.78 			"/>
			<polygon style="fill:#9EB547;" points="628.478,438.048 660.836,534.95 663.104,533.02 631.399,435.561 			"/>
		</g>
	</g>
	<g>
		<defs>
			<rect id="SVGID_00000160896680422198355850000002290655319022964143_" x="861.345" y="347.41" width="179.403" height="152.59"/>
		</defs>
		<clipPath id="SVGID_00000122704214872047922040000014397796434139251114_">
			<use xlink:href="#SVGID_00000160896680422198355850000002290655319022964143_"  style="overflow:visible;"/>
		</clipPath>
		<g style="clip-path:url(#SVGID_00000122704214872047922040000014397796434139251114_);">
			<path style="fill:#9FA52F;" d="M881.174,572.532c0,0-8.34-98.853,11.907-147.401c20.247-48.547,30.549-20.355,29.343,20.895
				c37.715-89.811,55.458-89.771,73.985-87.876c18.527,1.895-19.388,83.537-49.549,119.694
				C990.607,453.046,1028.684,468.375,881.174,572.532z"/>
			<path style="fill:#616602;" d="M881.174,572.532c0,0,46.598-119.422,92.916-190.047
				C937.522,458.784,893.154,548.582,881.174,572.532z"/>
			<path style="fill:#616602;" d="M905.385,519.855c0,0,32.61-26.708,63.008-38.172c-22.486,17.554-65.635,46.519-65.635,46.519
				L905.385,519.855z"/>
			<path style="fill:#616602;" d="M910.623,509.343c0,0,3.265-64.764-0.261-87.963c-0.97,20.723-2.932,91.368-2.932,91.368
				L910.623,509.343z"/>
		</g>
	</g>
	<g>
		<defs>
			<rect id="SVGID_00000024686439682501148570000014708923068777528457_" x="2.976" width="88.971" height="98.025"/>
		</defs>
		<clipPath id="SVGID_00000105422449840628501740000011094826706561879223_">
			<use xlink:href="#SVGID_00000024686439682501148570000014708923068777528457_"  style="overflow:visible;"/>
		</clipPath>
		<g style="clip-path:url(#SVGID_00000105422449840628501740000011094826706561879223_);">
			<path style="fill:#616602;" d="M5.963-18.421c0,0,53.095,34.469,65.612,100.428c-6.701-17.103-26.705-70.88-71.91-96.916
				C2.757-17.859,5.963-18.421,5.963-18.421z"/>
			<path style="fill:#616602;" d="M55.121,45.333c0,0-17.494,5.585-14.45,30.979C55.931,74.404,61.297,56.825,55.121,45.333z"/>
			<path style="fill:none;stroke:#3A3A01;stroke-width:0.9185;stroke-miterlimit:10;" d="M55.121,45.333
				c0,0-1.008,15.844-9.304,24.637"/>
			<path style="fill:#616602;" d="M39.137,19.153c0,0-17.494,5.585-14.45,30.979C39.946,48.224,45.312,30.645,39.137,19.153z"/>
			<path style="fill:none;stroke:#3A3A01;stroke-width:0.9185;stroke-miterlimit:10;" d="M39.137,19.153
				c0,0-1.008,15.844-9.304,24.637"/>
			<path style="fill:#616602;" d="M52.132,33.676c0,0,13.161-12.806,34.135,1.831C77.4,48.073,59.365,44.534,52.132,33.676z"/>
			<path style="fill:none;stroke:#3A3A01;stroke-width:0.9185;stroke-miterlimit:10;" d="M52.132,33.676
				c0,0,14.453,6.568,26.116,3.387"/>
			<path style="fill:#616602;" d="M28.546,3.064c0,0,13.162-12.806,34.135,1.831C53.814,17.46,35.779,13.921,28.546,3.064z"/>
			<path style="fill:none;stroke:#3A3A01;stroke-width:0.9185;stroke-miterlimit:10;" d="M28.546,3.064
				c0,0,14.453,6.568,26.116,3.387"/>
		</g>
	</g>
	<g>
		<defs>
			
				<rect id="SVGID_00000040569135972953707720000009730568010227791789_" x="553.691" y="411.703" transform="matrix(-1 -1.224647e-16 1.224647e-16 -1 1187.9758 912.2002)" width="80.593" height="88.795"/>
		</defs>
		<clipPath id="SVGID_00000155835694440636955330000008548669688643616444_">
			<use xlink:href="#SVGID_00000040569135972953707720000009730568010227791789_"  style="overflow:visible;"/>
		</clipPath>
		<g style="clip-path:url(#SVGID_00000155835694440636955330000008548669688643616444_);">
			<path style="fill:#616602;" d="M631.579,517.184c0,0-48.096-31.223-59.434-90.971c6.07,15.493,24.191,64.205,65.139,87.79
				C634.483,516.675,631.579,517.184,631.579,517.184z"/>
			<path style="fill:#616602;" d="M587.049,459.433c0,0,15.846-5.059,13.09-28.062C586.316,433.1,581.455,449.023,587.049,459.433z"
				/>
			<path style="fill:none;stroke:#3A3A01;stroke-width:0.832;stroke-miterlimit:10;" d="M587.049,459.433
				c0,0,0.913-14.352,8.427-22.317"/>
			<path style="fill:#616602;" d="M601.529,483.147c0,0,15.846-5.059,13.09-28.062C600.795,456.814,595.935,472.738,601.529,483.147
				z"/>
			<path style="fill:none;stroke:#3A3A01;stroke-width:0.832;stroke-miterlimit:10;" d="M601.529,483.147
				c0,0,0.913-14.352,8.428-22.317"/>
			<path style="fill:#616602;" d="M589.757,469.992c0,0-11.922,11.6-30.92-1.659C566.868,456.951,583.205,460.157,589.757,469.992z"
				/>
			<path style="fill:none;stroke:#3A3A01;stroke-width:0.832;stroke-miterlimit:10;" d="M589.757,469.992
				c0,0-13.092-5.95-23.657-3.068"/>
			<path style="fill:#616602;" d="M611.122,497.722c0,0-11.922,11.6-30.92-1.659C588.233,484.681,604.57,487.887,611.122,497.722z"
				/>
			<path style="fill:none;stroke:#3A3A01;stroke-width:0.832;stroke-miterlimit:10;" d="M611.122,497.722
				c0,0-13.092-5.95-23.657-3.068"/>
		</g>
	</g>
	<g>
		<defs>
			<rect id="SVGID_00000062883177450856685890000009458502995200073120_" x="299.999" width="85.211" height="68.419"/>
		</defs>
		<clipPath id="SVGID_00000139272363525852009970000007685126756236616875_">
			<use xlink:href="#SVGID_00000062883177450856685890000009458502995200073120_"  style="overflow:visible;"/>
		</clipPath>
		<g style="clip-path:url(#SVGID_00000139272363525852009970000007685126756236616875_);">
			<path style="fill:#7F8C03;" d="M366.358-40.856c0,0,31.344,70.325-54.832,93.411C320.556,32.392,301.454-11.319,366.358-40.856z"
				/>
			<path style="fill:#515103;" d="M328.054,35.048c0,0,40.984-56.071,40.909-98.828C368.362-6.346,351.53,16.934,328.054,35.048z"/>
		</g>
	</g>
	<g>
		<defs>
			<polygon id="SVGID_00000088115852056740285330000009325707155576647049_" points="586.429,500 0,500 0.539,39.791 
				589.509,39.791 			"/>
		</defs>
		<clipPath id="SVGID_00000070086952340731919520000003730606487233520805_">
			<use xlink:href="#SVGID_00000088115852056740285330000009325707155576647049_"  style="overflow:visible;"/>
		</clipPath>
		<g style="clip-path:url(#SVGID_00000070086952340731919520000003730606487233520805_);">
			<g>
				<path style="fill:#B74118;" d="M421.481,337.972c2.846-4.185,3.106-8.689,2.363-12.628c-1.309-6.939-0.437-14.008,2.517-20.422
					c1.677-3.641,2.518-8.073,0.774-12.824c-4.477-12.195-41.36-11.335-44.944,17.746
					C378.607,338.925,414.177,348.715,421.481,337.972z"/>
				<path style="fill:#77290E;" d="M414.197,320.676c-5.173,0.693-15.215,0.969-24.109-5.048c-1.482-1.002-3.489,0.231-3.148,1.987
					c1.316,6.79,7.544,14.023,19.824,16.607c8.431,1.249,12.642-3.892,12.184-9.726C418.76,322.092,416.587,320.356,414.197,320.676
					z"/>
				<path style="fill:#FFF6DE;" d="M413.139,327.79c-0.805-0.946-0.922-2.168-0.262-2.73c0.66-0.562,1.848-0.251,2.653,0.695
					s0.922,2.168,0.262,2.73C415.131,329.047,413.944,328.736,413.139,327.79z"/>
				<path style="fill:#FFF6DE;" d="M405.891,327.683c-0.24-1.218,0.255-2.342,1.106-2.509c0.85-0.168,1.734,0.684,1.974,1.903
					c0.24,1.218-0.255,2.342-1.106,2.509C407.015,329.753,406.131,328.901,405.891,327.683z"/>
				<path style="fill:#FFF6DE;" d="M399.392,325.838c0.272-1.211,1.179-2.039,2.025-1.849c0.846,0.19,1.311,1.326,1.038,2.538
					c-0.273,1.212-1.179,2.04-2.025,1.849C399.584,328.186,399.119,327.049,399.392,325.838z"/>
				<path style="fill:#FFF6DE;" d="M393.256,322.675c0.499-1.137,1.547-1.776,2.341-1.428c0.794,0.348,1.033,1.553,0.534,2.69
					c-0.499,1.137-1.547,1.777-2.341,1.428C392.996,325.016,392.757,323.812,393.256,322.675z"/>
				<path style="fill:#77290E;" d="M412.056,318.73c0,0-9.39,2.401-16.658-2.251C388.13,311.828,403.596,319.467,412.056,318.73z"/>
				<path style="fill:#77290E;" d="M415.869,307.107c-4.85-1.928-14.524-4.634-24.613-0.957c-1.681,0.613-3.328-1.071-2.572-2.692
					c2.926-6.267,10.723-11.771,23.264-11.296c8.482,0.835,11.319,6.845,9.458,12.393
					C420.639,306.841,418.11,307.998,415.869,307.107z"/>
				<path style="fill:#FFF6DE;" d="M416.571,299.95c-1.01,0.722-1.421,1.879-0.917,2.584c0.504,0.705,1.732,0.692,2.742-0.03
					c1.01-0.722,1.421-1.879,0.917-2.584C418.809,299.214,417.581,299.228,416.571,299.95z"/>
				<path style="fill:#FFF6DE;" d="M409.513,298.293c-0.529,1.124-0.321,2.334,0.463,2.703c0.784,0.369,1.849-0.243,2.377-1.366
					c0.529-1.124,0.321-2.334-0.463-2.703C411.106,296.558,410.042,297.169,409.513,298.293z"/>
				<path style="fill:#FFF6DE;" d="M402.761,298.505c-0.03,1.241,0.648,2.265,1.515,2.286c0.867,0.021,1.593-0.969,1.624-2.21
					c0.03-1.242-0.648-2.265-1.515-2.286C403.518,296.274,402.791,297.263,402.761,298.505z"/>
				<path style="fill:#FFF6DE;" d="M396.041,300.083c0.208,1.224,1.069,2.099,1.924,1.954c0.855-0.145,1.379-1.255,1.171-2.479
					c-0.208-1.224-1.069-2.099-1.924-1.954C396.357,297.749,395.833,298.859,396.041,300.083z"/>
				<path style="fill:#77290E;" d="M413.32,308.475c0,0-8.525-4.609-16.706-1.862C388.434,309.361,405.293,305.706,413.32,308.475z"
					/>
			</g>
			<g>
				<path style="fill:#69841F;" d="M147.752,161.738c0,0,8.944,6.733,17.029-1.429c8.084-8.163,8.084-8.163,8.084-8.163
					l-14.02,3.673L147.752,161.738z"/>
				<path style="fill:#69841F;" d="M232.328,87.669c0,0,0.139,3.665-9.028,13.265c-9.167,9.599-57.688,58.535-57.688,58.535
					l-4.426-2.678L232.328,87.669z"/>
				<path style="fill:#69841F;" d="M217.139,90.671c-4.079-1.694-5.894-6.974-4.201-11.053l-3.105-0.639
					c-2.379,5.729,0.337,12.301,6.065,14.679c5.729,2.379,12.301-0.337,14.679-6.066l-0.816-0.989
					C228.068,90.682,223.173,93.176,217.139,90.671z"/>
				<path style="fill:#69841F;" d="M142.918,149.206c0,0-0.981,8.574,5.658,11.331c6.638,2.756,11.725,0.271,15.267-5.573
					c60.233-62.66,60.233-62.66,60.233-62.66c-0.088-0.021-7.547,1.292-10.788-4.166c-3.28-5.524-2.776-8.126-2.776-8.126
					l-65.596,64.386L142.918,149.206z"/>
				<path style="fill:#506014;" d="M209.061,84.665l-1.109-2.142l-63.037,61.874l-1.997,4.808c0,0-0.267,2.354,0.431,4.992
					l4.923,3.401L209.061,84.665z"/>
				<path style="fill:#9EB547;" d="M150.659,159.07c-4.513-1.874-6.653-7.052-4.779-11.565l-3.305-1.372
					c-2.632,6.339,0.373,13.611,6.712,16.243c6.339,2.632,13.611-0.373,16.243-6.712l-3.305-1.372
					C160.35,158.805,155.172,160.944,150.659,159.07z"/>
				<polygon style="fill:#9EB547;" points="145.88,147.505 212.938,79.618 210.372,78.552 142.575,146.133 				"/>
				<polygon style="fill:#9EB547;" points="165.529,155.664 232.328,87.669 229.762,86.604 162.224,154.292 				"/>
			</g>
			
				<ellipse transform="matrix(0.4463 -0.8949 0.8949 0.4463 -180.4254 431.9564)" style="fill:#27380D;" cx="258.854" cy="361.781" rx="23.614" ry="151.055"/>
			<g>
				<path style="fill:#7F8C03;" d="M196.146,359.92c0,0-17.628-38.779,0.03-49.86c17.658-11.081,21.826,31.944,21.826,31.944
					s-7.446-67.388,31.756-53.984c39.202,13.404-1.303,40.883-1.303,40.883s26.628-27.963,46.436,4.523
					c19.808,32.485-25.583,56.434-59.084,58.519C210.499,382.739,196.146,359.92,196.146,359.92z"/>
				<path style="fill:#52722E;" d="M211.687,374.362c0,0-13.195-32.635-9.794-50.586
					C206.857,330.95,212.353,356.756,211.687,374.362z"/>
				<path style="fill:#52722E;" d="M231.353,382.889c0,0-7.815-66.684,1.669-81.602c3.568,1.356,3.225,18.693,3.225,18.693
					s5.101-26.5,10.058-27.018c4.957-0.518-2.875,30.6-2.875,30.6s14.074-23.081,16.941-21.123
					C263.239,304.399,231.353,382.889,231.353,382.889z"/>
				<path style="fill:#52722E;" d="M239.329,381.457c0,0,19.771-50.775,31-49.311C281.558,333.61,239.329,381.457,239.329,381.457z"
					/>
			</g>
			<path style="fill:#C1B9B0;" d="M288.16,89.785c0,0-8.446-3.4-13.118-3.168c-4.672,0.233-23.73,14.929-27.485,20.745
				c3.194,2.732,20.331,5.016,20.331,5.016L288.16,89.785z"/>
			<path style="fill:#B2A697;" d="M281.111,139.76c0,0-12.857-3.565-20.61-7.432c-7.641-6.374-11.531-20.842-12.901-24.374
				c-1.371-3.531,15.5,2.036,15.5,2.036L281.111,139.76z"/>
			<g>
				<path style="fill:#616602;" d="M273.953,399.489c0,0-3.074-61.808,15.007-98.065c18.08-36.257,50.426-39.556,46.634-9.094
					c27.61-18.799,29.979-11.559,16.336,3.807c29.074-0.061,5.671,35.25-7.725,47.362c31.113,4.392,29.336,52.217-37.107,81.439
					C278.898,408.31,273.953,399.489,273.953,399.489z"/>
				<path style="fill:none;stroke:#3A3A01;stroke-width:1.1573;stroke-miterlimit:10;" d="M307.098,424.938
					c0,0-23.434-85.579,14.009-137.806"/>
				<path style="fill:none;stroke:#3A3A01;stroke-width:1.1573;stroke-miterlimit:10;" d="M348.643,291.326
					c0,0-36.109,33.014-48.744,70.465"/>
				<path style="fill:none;stroke:#3A3A01;stroke-width:1.1573;stroke-miterlimit:10;" d="M347.782,352.967
					c0,0-29.572,31.899-46.669,37.219"/>
				<path style="fill:none;stroke:#3A3A01;stroke-width:1.1573;stroke-miterlimit:10;" d="M355.388,311.467
					c0,0-23.068,32.901-55.003,53.938"/>
				<path style="fill:none;stroke:#3A3A01;stroke-width:1.1573;stroke-miterlimit:10;" d="M344.607,308.248
					c0,0-5.185,15.262-6.251,23.959"/>
				<path style="fill:none;stroke:#3A3A01;stroke-width:1.1573;stroke-miterlimit:10;" d="M304.514,324.456
					c0,0-7.241-9.509-9.475-17.875"/>
			</g>
			<g>
				<path style="fill:#616602;" d="M345.763,405.724c0,0,79.737-1.895,139.651,57.816c-19.13-13.027-78.173-54.742-143.706-49.685
					C342.828,408.588,345.763,405.724,345.763,405.724z"/>
				<path style="fill:#616602;" d="M442.226,437.091c0,0-14.226,18.247,6.994,42.498
					C463.737,466.754,456.82,444.654,442.226,437.091z"/>
				<path style="fill:none;stroke:#3A3A01;stroke-width:1.1573;stroke-miterlimit:10;" d="M442.226,437.091
					c0,0,10.216,17.197,7.838,32.242"/>
				<path style="fill:#616602;" d="M406.985,421.223c0,0-14.226,18.247,6.994,42.498
					C428.496,450.887,421.579,428.786,406.985,421.223z"/>
				<path style="fill:none;stroke:#3A3A01;stroke-width:1.1573;stroke-miterlimit:10;" d="M406.985,421.223
					c0,0,10.216,17.197,7.839,32.242"/>
				<path style="fill:#616602;" d="M430.828,427.091c0,0,4.586-22.678,36.809-22.364
					C467.348,424.101,446.071,433.242,430.828,427.091z"/>
				<path style="fill:none;stroke:#3A3A01;stroke-width:1.1573;stroke-miterlimit:10;" d="M430.828,427.091
					c0,0,19.704-3.444,29.574-15.045"/>
				<path style="fill:#616602;" d="M384.53,412.016c0,0,4.586-22.678,36.809-22.364C421.049,409.027,399.772,418.168,384.53,412.016
					z"/>
				<path style="fill:none;stroke:#3A3A01;stroke-width:1.1573;stroke-miterlimit:10;" d="M384.53,412.016
					c0,0,19.704-3.444,29.574-15.045"/>
			</g>
			<g>
				<path style="fill:#B74118;" d="M303.443,225.864c-4.043,20.24-28.747,36.059-54.304,30.954
					c-25.557-5.105-42.289-29.2-38.246-49.44c4.043-20.24,27.329-28.96,52.886-23.856
					C289.336,188.627,307.485,205.624,303.443,225.864z"/>
				<path style="fill:#77290E;" d="M264.67,243.681c-25.557-5.105-42.289-29.2-38.246-49.44c0.613-3.07,1.676-5.871,3.115-8.404
					c-9.661,4.05-16.607,11.326-18.647,21.541c-4.043,20.24,12.689,44.335,38.246,49.44c19.641,3.923,38.766-4.517,48.409-17.819
					C288.065,243.931,276.461,246.036,264.67,243.681z"/>
				<path style="opacity:0.26;fill:#FFFFFF;" d="M298.05,227.886c-4.571,3.993-14.198,0.45-21.503-7.912
					c-7.305-8.363-9.521-18.378-4.951-22.371c4.57-3.993,14.198-0.45,21.503,7.912C300.404,213.877,302.621,223.893,298.05,227.886z
					"/>
				<path style="fill:#616602;" d="M263.779,183.523c0,0-3.906-4.851-14.59-6.985c3.56,2.844,5.056,5.708,5.056,5.708
					s-13.041,1.534-17.2,7.103c9.201-1.819,14.359-0.179,14.359-0.179s-4.48,3.981-3.527,9.961c6.107-4.57,10.52-7.105,14.145-6.806
					c6.556,3.932,8.609,8.913,9.313,11.491c2.694-8.909-1.351-13.069-1.351-13.069s7.16-1.925,17.148,2.052
					C279.943,185.118,267.13,181.863,263.779,183.523z"/>
				<path style="fill:#616602;" d="M262.639,187.452c0,0,3.822-15.692-2.099-22.665c-0.076-2.236,1.171-2.758,2.62-2.624
					c2.604,0.239,4.639,2.353,4.996,4.943c0.529,3.835,0.651,10.863-2.512,20.947C264.238,188.99,262.639,187.452,262.639,187.452z"
					/>
			</g>
			<g>
				<path style="fill:#9FA52F;" d="M316.897,411.289c0,0,48.395-48.353,82.986-59.27c34.591-10.916,24.313,7.05,2.035,24.758
					c64.109-20.058,71.977-10.689,79.217-0.081c7.24,10.608-52.652,26.928-85.121,27.109
					C428.536,415.836,437.389,442.722,316.897,411.289z"/>
				<path style="fill:#616602;" d="M316.897,411.289c0,0,83.666-28.543,141.487-35.535
					C401.907,390.408,334.847,406.953,316.897,411.289z"/>
				<path style="fill:#616602;" d="M355.427,400.626c0,0,28.578,5.312,48.138,16.236c-19.251-4.046-53.705-13.909-53.705-13.909
					L355.427,400.626z"/>
				<path style="fill:#616602;" d="M363.297,398.712c0,0,35.587-27.078,46.247-39.253c-11.354,8.704-49.462,39.084-49.462,39.084
					L363.297,398.712z"/>
			</g>
			<g>
				<path style="fill:#B74118;" d="M328.403,358.11c-5.872-4.191-12.282-4.707-17.919-3.776c-9.931,1.64-19.977,0.169-29.021-4.248
					c-5.134-2.508-11.423-3.85-18.249-1.519c-17.522,5.985-17.492,58.572,23.833,64.621
					C328.372,419.237,343.474,368.866,328.403,358.11z"/>
				<path style="fill:#77290E;" d="M303.52,367.93c0.819,7.394,0.888,21.713-7.975,34.192c-1.476,2.079,0.216,4.979,2.73,4.551
					c9.719-1.656,20.227-10.296,24.308-27.712c2.054-11.975-5.137-18.141-13.465-17.678
					C305.686,361.474,303.141,364.514,303.52,367.93z"/>
				<path style="fill:#FFF6DE;" d="M313.622,369.668c-1.374,1.116-3.119,1.244-3.898,0.285c-0.779-0.959-0.297-2.641,1.076-3.757
					c1.374-1.116,3.119-1.244,3.898-0.285C315.478,366.87,314.996,368.552,313.622,369.668z"/>
				<path style="fill:#FFF6DE;" d="M313.236,379.993c-1.744,0.302-3.329-0.439-3.54-1.657c-0.211-1.217,1.032-2.45,2.775-2.752
					c1.744-0.302,3.329,0.439,3.54,1.657C316.222,378.459,314.98,379.691,313.236,379.993z"/>
				<path style="fill:#FFF6DE;" d="M310.396,389.195c-1.718-0.427-2.868-1.746-2.57-2.945s1.933-1.825,3.65-1.397
					c1.718,0.427,2.868,1.746,2.57,2.945C313.748,388.997,312.113,389.622,310.396,389.195z"/>
				<path style="fill:#FFF6DE;" d="M305.69,397.836c-1.604-0.748-2.482-2.262-1.959-3.382c0.522-1.12,2.246-1.422,3.85-0.674
					c1.604,0.748,2.481,2.262,1.959,3.382C309.018,398.283,307.294,398.584,305.69,397.836z"/>
				<path style="fill:#77290E;" d="M300.678,370.918c0,0,3.117,13.458-3.747,23.665
					C290.066,404.789,301.453,382.997,300.678,370.918z"/>
				<path style="fill:#77290E;" d="M284.238,365.108c-2.905,6.849-7.074,20.547-2.161,35.043c0.819,2.415-1.634,4.708-3.92,3.577
					c-8.837-4.372-16.427-15.662-15.344-33.517c1.465-12.061,10.121-15.908,17.967-13.076
					C284.013,358.301,285.58,361.943,284.238,365.108z"/>
				<path style="fill:#FFF6DE;" d="M274.061,363.876c0.996,1.463,2.632,2.086,3.653,1.39c1.021-0.695,1.042-2.445,0.046-3.908
					c-0.996-1.463-2.632-2.086-3.653-1.39C273.085,360.664,273.065,362.414,274.061,363.876z"/>
				<path style="fill:#FFF6DE;" d="M271.472,373.879c1.584,0.79,3.315,0.534,3.866-0.572c0.551-1.106-0.286-2.643-1.87-3.432
					c-1.584-0.79-3.315-0.533-3.866,0.572C269.05,371.553,269.888,373.09,271.472,373.879z"/>
				<path style="fill:#FFF6DE;" d="M271.555,383.509c1.768,0.083,3.248-0.85,3.306-2.085c0.058-1.234-1.329-2.302-3.097-2.385
					c-1.768-0.083-3.248,0.85-3.306,2.085C268.4,382.358,269.787,383.426,271.555,383.509z"/>
				<path style="fill:#FFF6DE;" d="M273.586,393.136c1.751-0.257,3.026-1.456,2.846-2.678c-0.179-1.223-1.744-2.005-3.495-1.749
					c-1.751,0.257-3.026,1.456-2.847,2.678C270.27,392.61,271.835,393.393,273.586,393.136z"/>
				<path style="fill:#77290E;" d="M286.104,368.785c0,0-6.844,12-3.194,23.746C286.561,404.276,281.899,380.134,286.104,368.785z"
					/>
			</g>
			<g>
				<path style="fill:#D8691E;" d="M180.075,384.365c0,0-43.626-94.083-50.26-118.463c-6.634-24.38,12.501-34.199,21.618-33.069
					c9.118,1.13,25.069-1.165,28.76,42.818c3.691,43.983,5.345,102.327,4.895,107.797
					C184.637,388.919,183.268,387.097,180.075,384.365z"/>
				<path style="fill:#A54C11;" d="M185.088,383.449c0.081-0.988,0.094-3.711,0.038-7.757c-3.787-5.742-6.976-11.986-8.269-17.988
					c-3.435-15.951-18.981-63.568-25.371-72.45c-6.39-8.882-14.38-21.409-11.43-34.175c2.794-12.093,23.242-14.521,25.391-14.744
					c-4.924-3.158-10.099-3.015-14.014-3.5c-9.118-1.131-28.252,8.689-21.618,33.069c6.634,24.38,50.26,118.463,50.26,118.463
					C183.268,387.097,184.637,388.919,185.088,383.449z"/>
				<path style="fill:#A54C11;" d="M178.681,263.487c-0.662-3.849-1.448-7.2-2.333-10.118c-5.257,6.352-13.517,14.845-21.004,16.154
					C150.882,275.417,166.328,273.598,178.681,263.487z"/>
				<path style="fill:#A54C11;" d="M180.575,280.351c-4.051,4.35-8.837,8.64-13.009,10.074c-4.773,2.22,5.88,5.983,13.95,2.775
					C181.22,288.849,180.907,284.548,180.575,280.351z"/>
				<path style="fill:#A54C11;" d="M182.361,306.542c-3.522,2.552-7.488,5.057-10.108,5.584c-3.708,2.013,2.755,3.593,10.566,2.481
					C182.673,311.929,182.52,309.236,182.361,306.542z"/>
				<path style="fill:#7F8C03;" d="M145.195,233.462c0,0-7.698-34.345-20.701-45.956c-13.003-11.61-22.997,22.131-23.655,47.429
					c-0.658,25.299,9.458-5.261,9.047-14.714c4.625,12.421,6.894,2.163,7.565-10.601c4.797,10.935,7.975-2.287,8.199-6.162
					c2.508,0.681,15.429,25.272,15.988,34.171C143.918,238.766,146.355,238.098,145.195,233.462z"/>
				<path style="fill:#616602;" d="M149.156,235.115c0,0,3.768-20.115,8.814-31.374c0.285,13.132,5.301,15.634,5.975,6.289
					c4.8,13.214,7.986,9.108,8.888-0.693c5.938,12.073,15.764,38.045,9.334-10.721c-1.613-17.32-21.705-19.815-30.157,4.322
					c-5.603,17.138-6.632,33.619-6.632,33.619L149.156,235.115z"/>
				<path style="opacity:0.26;fill:#FFFFFF;" d="M164.297,241.296c0,0,10.87,22.737,12.507,63.987
					c-0.67,13.903-5.631-12.905-8.957-26.573C164.521,265.042,157.319,237.017,164.297,241.296z"/>
			</g>
			<g>
				<path style="fill:#A89682;" d="M239.004,280.863c-0.297-15.82,3.774-26.799,3.774-26.799l-8.779-5.889l-10.414,1.816
					c0,0-0.738,11.686-7.434,26.023c-3.144,6.732,1.265,14.582,8.667,15.219l0.044,0.004l0.041,0.014
					C231.926,293.675,239.143,288.292,239.004,280.863z"/>
				<path style="fill:#A89682;" d="M232.795,253.847c9.847,2.09,14.488,7.586,16.732,12.44c1.538,3.326,6.256,3.444,7.911,0.174
					c1.377-2.72,2.329-5.728,2.753-8.959c1.771-13.504-6.842-26.504-19.963-30.154c-15.513-4.316-31.214,5.374-34.505,20.884
					c-0.515,2.428-0.693,4.848-0.567,7.213c0.194,3.625,4.559,5.374,7.289,2.981C216.467,254.899,222.942,251.756,232.795,253.847z"
					/>
				<path style="opacity:0.26;fill:#FFFFFF;" d="M236.478,265.34c0,0-1.286,7.901-1.407,13.996
					c-0.121,6.096-4.359,9.494-7.645,8.407c-3.286-1.088,0.284-5.02,1.745-8.226c1.462-3.206,3.128-11.058,3.309-13.755
					C232.662,263.066,235.796,261.189,236.478,265.34z"/>
				<path style="opacity:0.26;fill:#FFFFFF;" d="M242.692,232.373c0,0,11.675,7.589,13.433,17.714
					c1.759,10.126-0.368,14.625-1.967,9.27c-1.599-5.354-2.858-13.827-10.589-18.984
					C235.837,235.216,237.251,227.92,242.692,232.373z"/>
				<path style="opacity:0.6;fill:#664F38;" d="M217.55,234.852c0,0-7.569,6.208-8.907,18.037c-0.204,4.645,1.169,3.697,4.358-0.281
					c3.189-3.979,6.6-10.76,10.464-12.439C227.328,238.49,221.708,231.827,217.55,234.852z"/>
			</g>
			<g>
				
					<ellipse transform="matrix(0.2341 -0.9722 0.9722 0.2341 -84.6172 522.0557)" style="fill:none;stroke:#6A5077;stroke-width:5.0365;stroke-miterlimit:10;" cx="289.025" cy="314.732" rx="19.986" ry="43.773"/>
				
					<ellipse transform="matrix(0.2341 -0.9722 0.9722 0.2341 -84.846 521.9251)" style="fill:none;stroke:#FFF6DE;stroke-width:4.6291;stroke-miterlimit:10;" cx="288.829" cy="314.812" rx="18.015" ry="41.025"/>
			</g>
			<g>
				
					<ellipse transform="matrix(0.4957 -0.8685 0.8685 0.4957 -157.9433 393.7969)" style="fill:none;stroke:#6A5077;stroke-width:5.0365;stroke-miterlimit:10;" cx="260.103" cy="332.894" rx="19.986" ry="43.773"/>
				
					<ellipse transform="matrix(0.4957 -0.8685 0.8685 0.4957 -158.069 393.6246)" style="fill:none;stroke:#FFF6DE;stroke-width:4.6291;stroke-miterlimit:10;" cx="259.892" cy="332.916" rx="18.014" ry="41.025"/>
			</g>
			<path style="fill:#D6CFC5;" d="M286.643,89.9c0,0-22.798,13.913-25.847,19.226c-3.049,5.313,16.3,28.631,20.314,30.633
				c4.014,2.002,26.203-14.618,28.77-18.857C312.449,116.664,291.506,86.843,286.643,89.9z"/>
			<path style="fill:#FFFFFF;" d="M296.595,102.207c0,0,9.968,14.27,10.007,16.475c0.04,2.204-7.06,7.491-11.083,9.47
				c-4.024,1.98-4.953,0.377-0.277-3.555c4.676-3.932,8.535-3.716,4.89-9.805C296.487,108.703,292.944,98.109,296.595,102.207z"/>
			<g>
				<path style="fill:#D6CFC5;" d="M205.936,168.837c0,0,8.723-2.61,12.23-5.706c3.507-3.096,9.238-26.47,8.546-33.358
					c-4.2-0.144-19.021,8.759-19.021,8.759L205.936,168.837z"/>
				<path style="fill:#B2A697;" d="M180.277,125.377c0,0,12.273-5.232,20.745-7.045c9.948,0.216,22.012,9.1,25.286,11.006
					c3.274,1.905-13.385,8.076-13.385,8.076L180.277,125.377z"/>
				<path style="fill:#C1B9B0;" d="M207.05,167.801c0,0,9.143-25.094,8.212-31.149c-0.931-6.055-30.599-12.214-34.985-11.275
					c-4.386,0.939-11.365,27.769-10.728,32.684C170.186,162.976,205.156,173.223,207.05,167.801z"/>
				<path style="fill:#B2A697;" d="M210.938,139.5c0,0-0.872,11.169-3.332,15.245c-2.46,4.076-1.714-5.126-1.754-9.329
					c-0.04-4.202-3.268-6.24-10.29-9.315C188.539,133.027,206.315,131.642,210.938,139.5z"/>
			</g>
			<g>
				<path style="fill:#7F8C03;" d="M438.345,274.762c0,0,47.489,18.381,17.822,69.385
					C451.003,330.478,421.665,318.875,438.345,274.762z"/>
				<path style="fill:#515103;" d="M455.76,328.228c0,0-6.911-45.412-26.878-65.436C455.373,290.018,458.329,308.786,455.76,328.228
					z"/>
			</g>
			<g>
				<path style="fill:#52722E;" d="M315.133,467.409c-3.757,7.533-45.869-5.843-94.059-29.878
					c-48.19-24.034-84.21-49.625-80.453-57.158c0,0-50.33,91.301,40.765,136.734C272.482,562.54,315.133,467.409,315.133,467.409z"
					/>
				<path style="fill:#AFAF3E;" d="M394.029,429.198c-5.821,11.671-71.059-9.052-145.714-46.286
					c-74.656-37.234-130.457-76.878-124.636-88.549c0,0-77.971,141.442,63.153,211.826
					C327.955,576.574,394.029,429.198,394.029,429.198z"/>
				<path style="fill:#FFF6DE;" d="M353.166,485.354c4.897-4.699,9.344-9.5,13.348-14.226
					c-43.036-6.311-91.544-22.29-139.245-46.081c-47.679-23.779-89.607-52.897-120.535-83.461
					c-1.365,6.042-2.525,12.482-3.331,19.22c31.197,28.928,71.47,56.214,116.635,78.739
					C265.226,462.083,311.274,477.842,353.166,485.354z"/>
				<path style="fill:#FFF6DE;" d="M204.093,471.518c-37.588-18.747-71.575-40.818-99.443-64.293
					c1.733,9.123,4.463,18.333,8.49,27.438c24.801,18.654,53.134,36.098,83.723,51.354c30.612,15.267,61.615,27.412,91.457,36.001
					c9.695-2.262,18.695-5.624,27.024-9.73C279.806,504.153,241.705,490.277,204.093,471.518z"/>
				<path style="opacity:0.19;fill:#52722E;" d="M186.831,506.19c24.868,12.403,47.395,18.021,67.651,18.898
					c-0.225-0.116-0.444-0.233-0.67-0.349c-120.624-61.627-83.359-148.74-67.691-175.926
					c-40.915-24.841-66.476-46.362-62.442-54.449C123.678,294.363,45.708,435.806,186.831,506.19z"/>
				<path style="fill:none;stroke:#69841F;stroke-width:1.1573;stroke-miterlimit:10;" d="M115.646,312.313
					c0,0,83.702,86.79,268.507,133.915"/>
				
					<ellipse transform="matrix(0.7531 -0.6579 0.6579 0.7531 -225.0418 334.5607)" style="opacity:0.26;fill:#FFFFFF;" cx="333.245" cy="467.124" rx="33.376" ry="15.279"/>
			</g>
			<g>
				<g>
					<path style="fill:#BCC65D;" d="M506.34,227.965l-47.991,14.693c0,0,6.601,22.86,26.292,15.597
						C501.858,251.906,496.454,234.258,506.34,227.965z"/>
					<path style="fill:#BCC65D;" d="M506.34,227.965l-47.991,14.693c0,0-7.329-22.637,13.052-27.644
						C489.222,210.637,494.626,228.286,506.34,227.965z"/>
					<path style="opacity:0.37;fill:#FFF2DD;" d="M478.623,236.451c7.408-2.405,11.139-10.707,12.847-16.246
						c-3.977-3.049-8.404-5.842-14.45-5.886c-0.605,11.603-11.452,24.904-11.452,24.904s1.215,0.692,8.843-1.483L478.623,236.451z"
						/>
					<path style="opacity:0.37;fill:#1F6313;" d="M478.633,236.485c7.485-2.155,15.224,2.635,19.74,6.268
						c-1.588,4.753-3.693,9.546-8.677,12.967c-6.998-9.275-23.432-14.224-23.432-14.224s0.62-1.253,8.157-3.722L478.633,236.485z"/>
					<path style="fill:#616602;" d="M440.37,241.615c0,0,31.77-4.578,50.298-9.062c0.605-0.146,0.89,0.72,0.315,0.959
						c-14.35,5.968-49.579,11.482-49.579,11.482L440.37,241.615z"/>
					<path style="fill:#616602;" d="M477.729,235.333c0,0,4.666-3.401,6.341-7.098c1.675-3.697-5.956,6.604-11.254,8.602
						C467.518,238.835,477.729,235.333,477.729,235.333z"/>
					<path style="fill:#616602;" d="M465.028,239.389c0,0,12.787,4.124,16.986,9.635c4.199,5.511-7.401-5.834-19.282-8.932
						C465.866,239.674,465.028,239.389,465.028,239.389z"/>
				</g>
				<path style="opacity:0.52;fill:#FFF6E7;" d="M487.398,217.395c-0.139-0.083-0.278-0.164-0.419-0.244
					c-0.182-0.104-0.366-0.206-0.551-0.306c-0.143-0.077-0.285-0.155-0.429-0.23c-0.217-0.112-0.439-0.22-0.661-0.326
					c-0.172-0.083-0.346-0.164-0.521-0.242c-0.256-0.114-0.513-0.226-0.775-0.331c-0.152-0.061-0.308-0.117-0.463-0.175
					c-0.197-0.074-0.396-0.146-0.597-0.214c-0.167-0.057-0.335-0.111-0.504-0.163c-0.202-0.062-0.408-0.12-0.614-0.177
					c-0.168-0.046-0.334-0.093-0.504-0.134c-0.27-0.065-0.544-0.122-0.82-0.176c-0.215-0.042-0.433-0.08-0.652-0.115
					c-0.262-0.042-0.525-0.082-0.794-0.113c-0.18-0.021-0.364-0.035-0.547-0.051c-0.232-0.02-0.465-0.037-0.702-0.049
					c-0.191-0.009-0.384-0.017-0.579-0.02c-0.083-0.002-0.164-0.008-0.247-0.009c0,0.003-0.001,0.006-0.001,0.009
					c-1.733-0.013-3.592,0.188-5.618,0.686c-12.143,2.983-14.447,12.22-14.328,19.204c5.866-1.237,21.54-5.461,30.69-16.599
					C487.642,217.544,487.521,217.468,487.398,217.395z"/>
			</g>
			<g>
				<g>
					<path style="fill:#BCC65D;" d="M31.653,340.13l49.345-66.622c0,0-31.205-23.896-50.241,5.078
						C14.113,303.92,38.614,322.067,31.653,340.13z"/>
					<path style="fill:#BCC65D;" d="M31.653,340.13l49.345-66.622c0,0,31.954,22.884,9.787,49.54
						C71.404,346.354,46.903,328.207,31.653,340.13z"/>
					<path style="opacity:0.37;fill:#FFF2DD;" d="M60.153,301.653c-7.483,10.467-4.293,25.158-1.127,34.194
						c8.276,0.149,16.9-0.486,24.976-6.36c-10.583-16.011-9.224-44.329-9.224-44.329s-2.294,0.274-10.294,10.649L60.153,301.653z"/>
					<path style="opacity:0.37;fill:#1F6313;" d="M60.106,301.619c-7.831,10.209-22.814,11.44-32.381,11.044
						c-2.555-7.873-4.462-16.308-1.196-25.745c18.401,5.456,45.093-4.097,45.093-4.097s0.406,2.273-7.186,12.951L60.106,301.619z"/>
					<path style="fill:#616602;" d="M105.912,257.25c0,0-37.72,37.262-57.937,61.404c-0.66,0.789-1.889-0.083-1.36-0.965
						c13.209-22.013,54.607-63.913,54.607-63.913L105.912,257.25z"/>
					<path style="fill:#616602;" d="M62.438,302.261c0,0-2.862,9.098-1.46,15.655c1.403,6.557,1.432-14.621,6.511-22.475
						C72.568,287.587,62.438,302.261,62.438,302.261z"/>
					<path style="fill:#616602;" d="M75.333,284.408c0,0-21.037,7.069-32.024,3.868c-10.988-3.201,15.559,0.489,34.386-7.056
						C73.94,284.85,75.333,284.408,75.333,284.408z"/>
				</g>
				<path style="opacity:0.52;fill:#FFF6E7;" d="M67.196,335.584c0.265-0.026,0.53-0.056,0.796-0.087
					c0.344-0.04,0.688-0.086,1.031-0.134c0.265-0.038,0.531-0.074,0.796-0.116c0.4-0.064,0.799-0.139,1.198-0.215
					c0.31-0.06,0.62-0.122,0.929-0.189c0.452-0.099,0.903-0.203,1.354-0.32c0.263-0.068,0.525-0.147,0.787-0.221
					c0.335-0.096,0.669-0.195,1.003-0.302c0.277-0.088,0.554-0.182,0.83-0.278c0.33-0.116,0.66-0.241,0.989-0.368
					c0.267-0.104,0.535-0.204,0.801-0.316c0.422-0.177,0.843-0.371,1.263-0.571c0.327-0.155,0.653-0.319,0.98-0.487
					c0.389-0.202,0.779-0.407,1.166-0.629c0.26-0.149,0.518-0.31,0.777-0.469c0.328-0.201,0.655-0.407,0.98-0.624
					c0.263-0.175,0.527-0.354,0.789-0.541c0.112-0.079,0.226-0.149,0.337-0.231c-0.003-0.004-0.005-0.009-0.008-0.013
					c2.315-1.684,4.588-3.775,6.792-6.425c13.207-15.881,7.202-30.415,0.191-39.577c-6.581,7.401-23.26,28.395-24.487,52.174
					C66.725,335.626,66.96,335.607,67.196,335.584z"/>
			</g>
			<g>
				<path style="fill:#616602;" d="M120.743,99.888c0,0,20.302,13.691,10.022,33.526c-10.28,19.834-14.587,28.624-14.621,34.036
					C106.064,158.228,78.196,105.492,120.743,99.888z"/>
				<path style="fill:#9FA52F;" d="M125.48,87.871c0,0-16.172,33.547-11.039,66.27c0.155,0.99-1.259,1.358-1.589,0.412
					c-6.764-19.415,1.147-48.218,11.259-69.327L125.48,87.871z"/>
				<path style="fill:#9FA52F;" d="M117.222,111.856c0,0-5.836,1.766-10.81,5.457c-0.561,0.417-1.248-0.312-0.799-0.848
					c4.152-4.96,10.019-7.683,10.019-7.683L117.222,111.856z"/>
				<path style="fill:#9FA52F;" d="M114.069,111.383c0,0,4.706,3.162,8.335,7.861c0.486,0.63,1.458,0.029,1.127-0.694
					c-2.574-5.624-7.039-9.64-7.039-9.64L114.069,111.383z"/>
				<path style="fill:#9FA52F;" d="M115.17,121.552c0,0,2.735,2.218,5.217,8.281c0.238,0.582-0.585,1.002-0.912,0.465
					c-1.989-3.272-3.521-5.059-4.894-5.665C112.792,122.811,115.17,121.552,115.17,121.552z"/>
				<path style="fill:#9FA52F;" d="M113.381,121.185c0,0-3.382,0.96-8.047,5.545c-0.45,0.442,0.143,1.154,0.657,0.788
					c3.11-2.217,5.218-3.253,6.717-3.269C115.071,123.279,113.381,121.185,113.381,121.185z"/>
				<path style="fill:#9FA52F;" d="M111.654,135.9c0,0-2.288,0.663-4.817,4.58c-0.459,0.712,0.464,1.503,1.091,0.934
					c1.792-1.629,3.591-3.05,5.17-1.766L111.654,135.9z"/>
				<path style="fill:#9FA52F;" d="M112.812,135.831c0,0,2.194,0.363,5.025,3.628c0.601,0.693-0.271,1.687-1.023,1.163
					c-1.852-1.292-3.661-2.273-4.994-0.898L112.812,135.831z"/>
			</g>
			<g>
				<path style="fill:#A26D27;" d="M504.817,160.408c0,0-6.679-23.626-18.343-25.968c-11.664-2.343-26.198,12.413-25.746,32.497
					c0.451,20.085,17.762,38.434,33.699,36.161c15.937-2.273,15.764-21.422,11.799-37.926
					C504.817,160.408,504.817,160.408,504.817,160.408z"/>
				<path style="opacity:0.3;fill:#42120D;" d="M491.82,137.136c8.334,6.795,12.997,23.272,12.997,23.272s0,0,1.409,4.764
					c3.965,16.504,4.138,35.653-11.799,37.926c-3.569,0.509-7.206-0.023-10.708-1.37C483.76,201.682,507.533,174.711,491.82,137.136
					z"/>
				<path style="fill:#724816;" d="M500.508,194.291c6.192-1.83,7.576-15.611,3.092-30.781
					c-4.484-15.169-13.138-25.983-19.33-24.153c-6.192,1.83-7.576,15.611-3.092,30.781
					C485.663,185.308,494.317,196.122,500.508,194.291z"/>
				<g>
					<path style="fill:#44290A;" d="M487.119,162.036c-1.388-1.07-2.639-2.316-3.744-3.701c-0.551-0.69-1.131-1.389-1.486-2.217
						c-0.354-0.823-0.591-1.715-0.582-2.63l0.1-0.029c0.536,0.741,0.949,1.464,1.403,2.18c0.462,0.703,0.781,1.495,1.243,2.217
						c0.916,1.439,1.962,2.825,3.134,4.104L487.119,162.036z"/>
				</g>
				<g>
					<path style="fill:#44290A;" d="M486.745,166.258c-0.926-0.14-1.837-0.369-2.724-0.719c-0.44-0.174-0.933-0.301-1.294-0.658
						c-0.354-0.341-0.691-0.785-0.724-1.346l0.086-0.058c0.487,0.203,0.861,0.363,1.246,0.561c0.382,0.185,0.688,0.517,1.065,0.761
						c0.749,0.488,1.552,0.937,2.375,1.359L486.745,166.258z"/>
				</g>
				<g>
					<path style="fill:#44290A;" d="M488.459,168.724c-0.815,0.398-1.639,0.767-2.471,1.109c-0.416,0.17-0.807,0.426-1.257,0.48
						c-0.449,0.06-0.909,0.08-1.419-0.068l-0.029-0.1c0.348-0.401,0.745-0.635,1.154-0.828c0.407-0.2,0.875-0.197,1.316-0.281
						c0.884-0.165,1.776-0.303,2.677-0.412L488.459,168.724z"/>
				</g>
				<g>
					<path style="fill:#44290A;" d="M489.193,171.135c-0.632,0.747-1.219,1.523-1.746,2.311c-0.261,0.399-0.427,0.848-0.73,1.195
						c-0.296,0.359-0.596,0.696-1.023,1.058l-0.099-0.032c-0.112-0.56,0.03-1.095,0.237-1.569c0.207-0.483,0.623-0.816,0.97-1.176
						c0.707-0.717,1.486-1.338,2.324-1.867L489.193,171.135z"/>
				</g>
				<g>
					<path style="fill:#44290A;" d="M490.569,173.454c-0.408,0.632-0.693,1.339-0.909,2.05c-0.23,0.708-0.38,1.435-0.469,2.166
						c-0.075,0.737-0.025,1.469-0.094,2.198c-0.08,0.734-0.121,1.471-0.307,2.264l-0.103,0.015
						c-0.381-0.716-0.571-1.496-0.629-2.286c-0.083-0.794,0.143-1.579,0.316-2.343c0.394-1.523,1.055-2.992,2.116-4.132
						L490.569,173.454z"/>
				</g>
				<g>
					<path style="fill:#44290A;" d="M493.392,176.008c-0.055,1.234-0.019,2.472,0.065,3.701c0.066,1.23,0.192,2.454,0.376,3.667
						c0.171,1.216,0.49,2.401,0.669,3.607c0.167,1.214,0.399,2.41,0.496,3.679l-0.098,0.033c-0.642-1.095-1.104-2.281-1.413-3.499
						c-0.337-1.216-0.395-2.484-0.479-3.732c-0.172-2.498-0.102-5.007,0.281-7.468L493.392,176.008z"/>
				</g>
				<g>
					<path style="fill:#44290A;" d="M496.34,175.807c0.22,1.092,0.524,2.166,0.874,3.219c0.334,1.057,0.729,2.093,1.173,3.102
						c0.433,1.016,1.012,1.954,1.458,2.951c0.439,1.009,0.951,1.97,1.363,3.049l-0.083,0.062c-0.876-0.744-1.615-1.641-2.195-2.622
						c-0.605-0.972-0.96-2.069-1.318-3.142c-0.726-2.147-1.205-4.365-1.375-6.607L496.34,175.807z"/>
				</g>
				<g>
					<path style="fill:#44290A;" d="M499.476,174.87c0.207,0.351,0.484,0.659,0.781,0.922c0.286,0.273,0.601,0.508,0.936,0.7
						c0.341,0.191,0.719,0.276,1.031,0.495c0.315,0.227,0.639,0.448,0.965,0.835l-0.025,0.101c-0.473,0.166-0.942,0.136-1.376,0.006
						c-0.448-0.114-0.771-0.481-1.099-0.778c-0.648-0.622-1.14-1.397-1.311-2.249L499.476,174.87z"/>
				</g>
				<g>
					<path style="fill:#44290A;" d="M488.383,157.555c-1.303-1.858-1.99-4.083-2.351-6.328c-0.153-1.125-0.334-2.273-0.196-3.413
						c0.115-1.137,0.379-2.257,0.843-3.311l0.102,0.019c0.059,0.576,0.068,1.136,0.068,1.689c0.035,0.556-0.004,1.103,0.024,1.651
						c0.018,1.091-0.074,2.179-0.015,3.275c0.076,1.091,0.227,2.182,0.492,3.25c0.252,1.068,0.591,2.136,1.119,3.109
						L488.383,157.555z"/>
				</g>
				<g>
					<path style="fill:#44290A;" d="M490.072,155.999c-0.103-1.729,0.005-3.468,0.279-5.19c0.135-0.859,0.229-1.744,0.569-2.558
						c0.32-0.816,0.756-1.597,1.354-2.273l0.095,0.042c-0.073,0.903-0.281,1.717-0.459,2.544c-0.182,0.821-0.527,1.598-0.746,2.419
						c-0.229,0.816-0.425,1.645-0.581,2.482c-0.174,0.835-0.319,1.682-0.406,2.534L490.072,155.999z"/>
				</g>
				<g>
					<path style="fill:#44290A;" d="M492.725,156.219c0.225-0.796,0.556-1.558,0.973-2.281c0.207-0.36,0.368-0.773,0.707-1.038
						c0.327-0.27,0.716-0.488,1.204-0.549l0.069,0.077c-0.103,0.485-0.296,0.825-0.498,1.163c-0.198,0.336-0.545,0.548-0.812,0.839
						c-0.536,0.574-1.061,1.184-1.548,1.833L492.725,156.219z"/>
				</g>
				<path style="fill:#A26D27;" d="M489.955,159.62c0,0,21.345-10.272,40.576-10.166c13.492,0.278,18.666,8.502,17.322,15.299
					c-1.343,6.797-7.809,6.575-15.695,4.64c-7.886-1.936-22.945-2.361-34.895,3.61c-3.841,1.44-6.485-2.35-7.562-5.993
					C488.624,163.366,489.955,159.62,489.955,159.62z"/>
				<path style="opacity:0.28;fill:#42120D;" d="M530.829,169.097c0.001,0.001,0.001,0.002,0.002,0.003
					c-8.162-1.667-22.254-1.751-33.568,3.902c-3.841,1.44-6.485-2.35-7.562-5.993c-0.364-1.232-0.45-2.473-0.408-3.579
					C493.612,162.321,520.696,155.997,530.829,169.097z"/>
				<path style="opacity:0.41;fill:#FEFEFE;" d="M483.683,134.21c-23.331,15.208-14.275,56.385-14.264,56.438
					c-5.094-6.531-8.495-14.955-8.692-23.711C460.311,148.428,472.62,134.457,483.683,134.21z"/>
				<path style="opacity:0.24;fill:#FEFEFE;" d="M532.186,158.377c-4.504-3.474-11.105-6.242-14.785-7.632
					c4.304-0.802,8.771-1.315,13.13-1.291c8.402,0.173,13.577,3.428,15.962,7.501C541.904,159.358,535.861,161.212,532.186,158.377z
					"/>
			</g>
			<g>
				<g>
					<path style="fill:#A26D27;" d="M343.22,154.863c6.758-3.612,25.295-17.999,33.389-19.035c8.094-1.035-6.024-8.451-6.024-8.451
						s4.887-15.18-1.617-10.252c-6.504,4.928-29.812,7.637-37.166,9.79c-7.354,2.153-0.13,16.359-0.13,16.359
						S336.463,158.475,343.22,154.863z"/>
					<path style="opacity:0.37;fill:#541610;" d="M370.199,138.092c2.469-1.206,4.679-2.042,6.41-2.263
						c8.094-1.035-6.024-8.451-6.024-8.451s4.887-15.18-1.617-10.252c-6.504,4.928-29.812,7.637-37.166,9.79
						c-5.158,1.51-3.144,8.947-1.482,13.256c-0.858-10.237,16.805-11.886,27.242-12.743
						C364.679,126.843,368.492,133.68,370.199,138.092z"/>
					<path style="fill:#651D13;" d="M381.079,153.063l-20.987-51.372c-1.697-4.154,0.295-8.897,4.448-10.593l0,0
						c18.34-7.492,39.281,1.301,46.773,19.641h0c7.492,18.339-1.301,39.28-19.641,46.773l0,0
						C387.519,159.208,382.776,157.217,381.079,153.063z"/>
					<path style="opacity:0.37;fill:#541610;" d="M370.404,105.45L370.404,105.45c15.875-6.485,33.691-0.762,43.055,12.786
						c-0.435-2.52-1.138-5.032-2.145-7.497h0c-7.492-18.34-28.433-27.133-46.773-19.641h0c-4.154,1.697-6.145,6.44-4.448,10.593
						l5.863,14.352C364.258,111.89,366.25,107.147,370.404,105.45z"/>
					<path style="opacity:0.3;fill:#FFF2DD;" d="M362.679,142.322c-5.636-3.055-18.689-7.907-29.513,4.759
						c1.92,4.237,5.549,10.191,10.055,7.783C347.166,152.754,355.125,146.975,362.679,142.322z"/>
				</g>
				<path style="opacity:0.55;fill:#FFFFFF;" d="M403.919,137.95c-3.977,6.14-10.225,9.158-13.955,6.742
					c-3.73-2.416-3.531-9.352,0.446-15.492c3.977-6.14,10.225-9.159,13.955-6.742C408.095,124.874,407.896,131.81,403.919,137.95z"
					/>
			</g>
			<g>
				<g>
					<path style="fill:#616602;" d="M397.676,179.932l0.882-0.493c16.234-9.068,36.745-3.26,45.813,12.974l0.332,0.594
						c9.068,16.234,3.26,36.745-12.974,45.813l-2.319,1.296c-9.914,5.538-17.877,13.801-23.908,23.424
						c-4.964,7.921-12.291,14.542-21.67,18.689c-21.817,9.647-47.979,1.656-60.747-18.494c-15.113-23.851-6.945-55.16,17.371-68.743
						c7.687-4.294,16.033-6.275,24.246-6.18C376.258,188.945,387.585,185.568,397.676,179.932z"/>
					<path style="fill:#9FA52F;" d="M393.441,172.351l0.882-0.493c16.234-9.068,36.745-3.259,45.813,12.974l0.332,0.594
						c9.068,16.234,3.259,36.745-12.974,45.814l-2.319,1.295c-9.914,5.538-17.876,13.802-23.908,23.424
						c-4.965,7.921-12.292,14.542-21.67,18.689c-21.817,9.647-47.979,1.656-60.747-18.494c-15.113-23.851-6.945-55.159,17.37-68.742
						c7.687-4.294,16.033-6.274,24.246-6.18C372.023,181.363,383.351,177.987,393.441,172.351z"/>
					<path style="fill:#DBDB9A;" d="M392.858,175.887l0.81-0.453c14.908-8.328,33.745-2.993,42.073,11.915l0.305,0.545
						c8.328,14.909,2.993,33.745-11.915,42.074l-2.13,1.19c-9.105,5.086-16.417,12.675-21.956,21.512
						c-4.559,7.274-11.288,13.355-19.901,17.163c-20.036,8.86-44.062,1.521-55.787-16.984c-13.879-21.904-6.378-50.656,15.952-63.13
						c7.06-3.943,14.724-5.762,22.267-5.676C373.189,184.164,383.592,181.064,392.858,175.887z"/>
					<path style="fill:#A26D27;" d="M343.944,202.87c-15.189,8.485-20.624,27.677-12.139,42.866
						c8.485,15.189,27.677,20.624,42.866,12.14c15.189-8.485,20.624-27.677,12.14-42.866
						C378.326,199.821,359.134,194.385,343.944,202.87z"/>
					<path style="fill:#84561F;" d="M349.842,253.103c-8.485-15.19-3.05-34.382,12.139-42.867c5.596-3.126,11.734-4.356,17.68-3.912
						c-9.734-8.236-23.93-10.039-35.718-3.454c-15.189,8.485-20.624,27.677-12.139,42.866c5.359,9.594,14.99,15.29,25.186,16.052
						C354.182,259.412,351.742,256.504,349.842,253.103z"/>
				</g>
				<path style="opacity:0.26;fill:#FFFFFF;" d="M380.427,239.125c-2.833,6.683-8.277,10.767-12.158,9.121
					c-3.881-1.646-4.73-8.397-1.897-15.08c2.834-6.683,8.277-10.767,12.158-9.121C382.412,225.69,383.261,232.442,380.427,239.125z"
					/>
			</g>
			<path style="fill:#B74118;" d="M494.528,338.613c0,0,5.617-57.094,24.561-51.089c18.943,6.005,2.076,26.669,2.076,26.669
				s11.639-6.84,25.109,6.242C559.744,333.516,494.528,338.613,494.528,338.613z"/>
			<path style="fill:#B74118;" d="M507.958,275.189c0,0,3.985-40.507,17.425-36.246c13.44,4.26,1.473,18.921,1.473,18.921
				s8.258-4.853,17.814,4.428C554.227,271.573,507.958,275.189,507.958,275.189z"/>
			<path style="fill:#B74118;" d="M174.677,94.615c0,0,11.827-39.061-5.305-44.314c-17.132-5.252-12.603,11.408-12.603,11.408
				s-8.656-6.406-19.819,2.116C125.787,72.346,174.677,94.615,174.677,94.615z"/>
		</g>
	</g>
</g>
<g id="TEXTS">
	<g>
		<path style="fill:#52722E;" d="M819.004,355.595h-96.91c-7.529,0-13.689-6.16-13.689-13.689l0,0
			c0-7.529,6.16-13.689,13.689-13.689h96.91c7.529,0,13.689,6.16,13.689,13.689l0,0
			C832.693,349.435,826.533,355.595,819.004,355.595z"/>
		<rect x="708.405" y="333.831" style="fill:none;" width="124.288" height="15.804"/>
		
			<text transform="matrix(1 0 0 1 727.5808 347.1938)" style="fill:#E2E2BC; font-family:'Montserrat-Black'; font-size:18.0087px;">Buy now</text>
	</g>
	<g>
		<path style="fill:#9FA52F;" d="M917.25,308.669H620.14c-9.236,0-16.723-7.487-16.723-16.723l0,0
			c0-9.236,7.487-16.723,16.723-16.723H917.25c9.236,0,16.723,7.487,16.723,16.723l0,0
			C933.972,301.182,926.485,308.669,917.25,308.669z"/>
		<g>
			<rect x="648.414" y="280.807" style="fill:none;" width="243.133" height="37.236"/>
			
				<text transform="matrix(1 0 0 1 658.8876 301.1498)" style="fill:#E2E2BC; font-family:'Montserrat-Bold'; font-size:27.4172px;">UP TO 50% OFF</text>
		</g>
		<g>
			<rect x="563.226" y="181.828" style="fill:none;" width="414.646" height="91.39"/>
			
				<text transform="matrix(1 0 0 1 604.7177 262.0659)" style="fill:#52722E; font-family:'Montserrat-Black'; font-size:108.1398px;">SALE!</text>
		</g>
	</g>
	<path style="fill:#52722E;" d="M752.274,407.285c-7.342-0.018-13.204-5.931-13.191-13.304c0.014-7.324,5.955-13.185,13.335-13.156
		c7.28,0.03,13.138,5.971,13.112,13.299C765.503,401.425,759.582,407.303,752.274,407.285z M750.162,402.734
		c1.174,0,2.258,0,3.459,0c0-2.843,0-5.636,0-8.501c0.84,0,1.564,0,2.335,0c0.08-0.969,0.154-1.867,0.235-2.85
		c-0.913,0-1.716,0-2.598,0c0-0.623,0.004-1.169,0-1.715c-0.005-0.554,0.257-0.819,0.819-0.805c0.569,0.013,1.14,0.003,1.713,0.003
		c0-1.056,0-2.008,0-2.967c-1.018,0-1.967-0.051-2.908,0.01c-2.05,0.132-3.029,1.202-3.052,3.256
		c-0.009,0.726-0.001,1.451-0.001,2.268c-0.647,0-1.183,0-1.699,0c0,1.001,0,1.906,0,2.878c0.578,0,1.095,0,1.697,0
		C750.162,397.148,750.162,399.921,750.162,402.734z M813.572,394.034c0.005-7.297,5.913-13.207,13.211-13.219
		c7.325-0.012,13.249,5.924,13.239,13.265c-0.011,7.338-5.938,13.232-13.288,13.215
		C819.447,407.277,813.566,401.352,813.572,394.034z M827.628,392.383c-2.57-0.151-4.566-1.276-6.267-3.148
		c-0.729,1.569-0.381,2.828,0.814,4.052c-0.502-0.113-0.839-0.189-1.233-0.278c0.086,1.464,0.88,2.339,2.268,2.996
		c-0.523,0.033-0.804,0.051-1.142,0.072c0.422,1.286,1.399,1.811,2.643,2.115c-1.232,0.964-2.588,1.241-4.226,1.239
		c0.342,0.216,0.501,0.336,0.675,0.424c5.136,2.599,11.318-0.46,12.385-6.126c0.32-1.698,0.428-1.945,1.419-3.27
		c0.041-0.055,0.057-0.127,0.108-0.244c-0.441,0.101-0.832,0.19-1.273,0.292c0.356-0.513,0.664-0.957,0.972-1.402
		c-0.492,0.051-0.844,0.247-1.219,0.323c-0.298,0.06-0.708,0.088-0.923-0.069c-1.115-0.812-2.284-0.976-3.477-0.3
		C827.932,389.749,827.461,390.875,827.628,392.383z M701.076,394.094c0.004-7.387,5.947-13.32,13.307-13.282
		c7.283,0.038,13.148,5.971,13.141,13.294c-0.008,7.289-5.95,13.215-13.231,13.193C706.971,407.277,701.073,401.385,701.076,394.094
		z M714.303,388.793v0.003c-1.684,0-3.368-0.006-5.051,0.002c-1.601,0.008-2.475,0.885-2.483,2.497
		c-0.009,1.842-0.008,3.684,0.002,5.527c0.008,1.62,0.871,2.503,2.476,2.509c3.367,0.012,6.735,0.013,10.103,0.003
		c1.61-0.005,2.461-0.872,2.474-2.509c0.014-1.842,0.012-3.684,0.003-5.526c-0.008-1.66-0.869-2.501-2.551-2.504
		C717.618,388.79,715.96,388.793,714.303,388.793z M712.847,396.556c1.437-0.948,2.782-1.835,4.222-2.784
		c-1.42-0.938-2.763-1.824-4.222-2.787C712.847,392.902,712.847,394.664,712.847,396.556z M789.138,407.282
		c-7.31-0.022-13.174-5.923-13.162-13.245c0.011-7.347,5.938-13.24,13.285-13.208c7.308,0.032,13.185,5.948,13.164,13.251
		C802.402,401.44,796.501,407.304,789.138,407.282z M796.94,394.381c-0.031-0.001-0.061-0.002-0.092-0.003
		c0-1.052,0.041-2.106-0.008-3.156c-0.125-2.689-1.443-4.271-4.058-4.438c-2.51-0.161-5.048-0.107-7.56,0.062
		c-1.988,0.134-3.392,1.547-3.507,3.551c-0.15,2.618-0.148,5.257,0,7.874c0.115,2.046,1.592,3.479,3.658,3.585
		c2.566,0.132,5.15,0.123,7.717-0.01c2.001-0.103,3.36-1.472,3.622-3.453C796.886,397.068,796.87,395.719,796.94,394.381z
		 M789.257,388.115c1.026-0.001,2.054-0.032,3.078,0.005c1.98,0.071,3.039,1.084,3.089,3.044c0.053,2.105,0.052,4.212,0.001,6.318
		c-0.047,1.975-1.075,3.014-3.061,3.07c-2.104,0.059-4.212,0.059-6.316-0.001c-1.984-0.056-2.997-1.085-3.048-3.081
		c-0.054-2.105-0.048-4.213,0.002-6.317c0.045-1.925,1.092-2.952,3.018-3.03C787.097,388.079,788.178,388.115,789.257,388.115z
		 M789.264,398.264c2.156-0.009,3.864-1.745,3.877-3.941c0.013-2.145-1.755-3.925-3.901-3.927c-2.198-0.003-3.986,1.783-3.958,3.953
		C785.31,396.575,787.038,398.273,789.264,398.264z M794.342,390.454c0.003-0.128,0.004-0.256,0.007-0.384
		c-0.338-0.241-0.649-0.617-1.02-0.693c-0.53-0.109-0.901,0.26-0.925,0.821c-0.025,0.594,0.311,1.016,0.897,0.923
		C793.674,391.063,793.997,390.687,794.342,390.454z M786.666,394.363c0.018,1.368,1.151,2.493,2.533,2.515
		c1.364,0.021,2.546-1.129,2.557-2.486c0.012-1.42-1.137-2.6-2.531-2.6C787.818,391.791,786.649,392.967,786.666,394.363z"/>
	<rect x="449.84" y="71.946" style="fill:none;" width="88.133" height="67.067"/>
	<text transform="matrix(1 0 0 1 455.6175 97.5068)"><tspan x="0" y="0" style="fill:#E2E2BC; font-family:'Montserrat-Black'; font-size:34.4487px;">30%</tspan><tspan x="0.291" y="27.335" style="fill:#E2E2BC; font-family:'Montserrat-Black'; font-size:35.5797px;">OFF</tspan></text>
	<g>
		<rect x="638.573" y="85.674" style="fill:none;" width="279.321" height="83.273"/>
		<text transform="matrix(1 0 0 1 691.3173 121.707)"><tspan x="0" y="0" style="fill:#52722E; font-family:'TitanOne'; font-size:46.1957px;">WORLD</tspan><tspan x="-48.781" y="37.727" style="fill:#9FA52F; font-family:'TitanOne'; font-size:46.1957px;">VEGAN DAY</tspan></text>
		<g>
			<path style="fill:#9FA52F;" d="M907.889,83.701c0,0-49.648,2.079-33.329,33.329C904.956,86.634,907.889,83.701,907.889,83.701z"
				/>
			<path style="fill:#9FA52F;" d="M907.889,83.701c0,0-2.079,49.648-33.329,33.329C904.956,86.634,907.889,83.701,907.889,83.701z"
				/>
			
				<line style="fill:none;stroke:#F4E5C3;stroke-width:0.8563;stroke-miterlimit:10;" x1="907.889" y1="83.701" x2="874.56" y2="117.03"/>
			
				<line style="fill:none;stroke:#F4E5C3;stroke-width:0.8563;stroke-miterlimit:10;" x1="887.561" y1="87.687" x2="891.224" y2="100.366"/>
			
				<line style="fill:none;stroke:#F4E5C3;stroke-width:0.8563;stroke-miterlimit:10;" x1="898.995" y1="113.736" x2="880.159" y2="111.431"/>
		</g>
		<g>
			<path style="fill:#9FA52F;" d="M649.409,83.701c0,0,49.648,2.079,33.329,33.329C652.342,86.634,649.409,83.701,649.409,83.701z"
				/>
			<path style="fill:#9FA52F;" d="M649.409,83.701c0,0,2.079,49.648,33.329,33.329C652.342,86.634,649.409,83.701,649.409,83.701z"
				/>
			
				<line style="fill:none;stroke:#F4E5C3;stroke-width:0.8563;stroke-miterlimit:10;" x1="649.409" y1="83.701" x2="682.739" y2="117.03"/>
			
				<line style="fill:none;stroke:#F4E5C3;stroke-width:0.8563;stroke-miterlimit:10;" x1="669.737" y1="87.687" x2="666.074" y2="100.366"/>
			
				<line style="fill:none;stroke:#F4E5C3;stroke-width:0.8563;stroke-miterlimit:10;" x1="658.303" y1="113.736" x2="677.139" y2="111.431"/>
		</g>
	</g>
</g>
</svg>
